<svg width="53" height="53" viewBox="0 0 53 53" fill="none" xmlns="http://www.w3.org/2000/svg">
<path d="M37.96 46.88C38.64 47.35 39.44 47.59 40.24 47.59C40.87 47.59 41.51 47.44 42.1 47.13C43.42 46.44 44.25 45.08 44.25 43.59V11.41C44.25 8.10003 41.56 5.41003 38.25 5.41003H14.75C11.44 5.41003 8.75 8.10003 8.75 11.41V43.59C8.75 45.08 9.57 46.44 10.9 47.13C12.22 47.82 13.81 47.72 15.03 46.87C15.09 46.83 15.14 46.79 15.19 46.74L26.49 37.04L37.8 46.75C37.85 46.79 37.9 46.84 37.96 46.88ZM26.49 32.41C26.03 32.41 25.56 32.57 25.19 32.89L12.74 43.57V11.41C12.74 10.31 13.64 9.41003 14.74 9.41003H38.24C39.34 9.41003 40.24 10.31 40.24 11.41L40.25 43.58L27.79 32.89C27.42 32.57 26.95 32.41 26.49 32.41Z" fill="black"/>
</svg>
