<svg width="206" height="239" viewBox="0 0 206 239" fill="none" xmlns="http://www.w3.org/2000/svg">
<path d="M180.492 129.94L148.764 74.3639C146.6 70.5399 143.068 67.8143 138.883 66.6746C134.697 65.5347 130.308 66.1461 126.52 68.3431C123.335 70.2291 121.008 73.0374 119.671 76.2708C117.711 74.364 115.302 72.9857 112.617 72.2604C108.411 71.1205 104.042 71.7319 100.285 73.9288C96.9373 75.8874 94.4361 78.9651 93.1498 82.6336C91.4246 81.2553 89.434 80.219 87.2394 79.6077C83.0539 78.4677 78.6647 79.0792 74.8772 81.2761C71.9984 82.9757 69.7529 85.4627 68.344 88.468L55.1961 65.4103C53.0524 61.6381 49.449 58.8297 45.3147 57.7211C41.1907 56.6019 36.6888 57.2133 32.9526 59.3895C29.1858 61.5865 26.5216 65.1514 25.3987 69.4208C24.2758 73.6904 24.878 78.1256 27.0422 81.9394L63.129 145.217C53.3598 152.969 50.43 167.104 56.8305 178.296L67.2021 196.494C76.4301 212.65 92.8653 223.023 111.241 224.267C112.466 224.35 113.701 224.402 114.926 224.402C124.593 224.402 134.077 221.832 142.499 216.868L160.404 206.339C186.691 190.898 195.684 156.597 180.473 129.932L180.492 129.94ZM156.891 200.189L138.986 210.718C130.696 215.599 121.264 217.827 111.729 217.195C95.7328 216.107 81.36 207.06 73.3372 192.977L62.9656 174.779C58.5251 166.976 60.3014 157.245 66.7528 151.535L76.134 167.981C77.1037 169.681 79.2678 170.261 80.9419 169.277C82.616 168.292 83.1877 166.095 82.2179 164.396L33.1666 78.4146C31.9416 76.2383 31.5945 73.7202 32.2274 71.3055C32.8501 68.8909 34.3711 66.8701 36.5148 65.6267C38.6278 64.3831 41.1902 64.0308 43.5176 64.6732C45.8655 65.3054 47.9071 66.9013 49.132 69.0463L86.8704 135.184C87.8401 136.883 90.0042 137.464 91.6783 136.479C92.8012 135.816 93.4341 134.624 93.4341 133.37C93.4341 132.759 93.281 132.147 92.9645 131.588L75.1208 100.281C73.8958 98.1354 73.5487 95.5862 74.1816 93.1715C74.8043 90.7569 76.3253 88.7361 78.4384 87.4927C80.5821 86.218 83.0626 85.8968 85.4208 86.5392C87.83 87.2025 89.841 88.7673 91.0661 90.9436L109.043 122.169C110.033 123.868 112.176 124.448 113.85 123.443C115.525 122.459 116.096 120.262 115.126 118.562L100.488 92.9035C99.263 90.7584 98.9159 88.2299 99.5692 85.8152C100.192 83.4006 101.713 81.3798 103.857 80.1363C105.97 78.8928 108.532 78.5404 110.859 79.1829C113.238 79.8151 115.229 81.3591 116.453 83.5353L131.092 109.194C132.062 110.894 134.226 111.474 135.9 110.49C137.023 109.826 137.656 108.635 137.656 107.381C137.656 106.769 137.503 106.158 137.186 105.598L126.764 87.3179C124.201 82.8307 125.692 77.0999 130.112 74.53C132.255 73.2864 134.736 72.9341 137.114 73.5766C139.493 74.2087 141.484 75.7735 142.729 77.9497L153.151 96.2299L174.445 133.557C187.716 156.821 179.876 186.719 156.939 200.222L156.891 200.189ZM62.4545 32.8164C62.5361 32.6609 62.6382 32.5262 62.7199 32.3604C62.7505 32.3086 62.7709 32.2775 62.8015 32.2257L80.7067 9.21979C81.9113 7.68608 84.1265 7.41662 85.6474 8.63946C87.1582 9.8623 87.4236 12.1111 86.219 13.6551L76.1333 26.5984C107.31 17.4169 133.524 30.1841 134.749 30.785C136.505 31.6555 137.209 33.7799 136.342 35.5624C135.484 37.3449 133.392 38.0599 131.636 37.2101C131.35 37.0547 104.85 24.2357 74.8491 34.5055L90.3961 41.055C92.2029 41.8219 93.0399 43.8944 92.305 45.7287C91.7333 47.1069 90.4267 47.9256 89.069 47.9256C88.6198 47.9256 88.1502 47.8427 87.7113 47.6562L64.1917 37.7387C64.1917 37.7387 63.9876 37.604 63.8753 37.5522C63.7732 37.5004 63.6915 37.4486 63.5895 37.3968C63.3853 37.262 63.2015 37.1066 63.0382 36.9201C62.9872 36.8682 62.9361 36.8371 62.9055 36.7853C62.7013 36.547 62.538 36.2775 62.3849 36.0185C62.3849 36.0185 62.3543 35.9874 62.3338 35.9667C62.2522 35.8112 62.2318 35.6454 62.1807 35.49C62.1807 35.4381 62.1297 35.3863 62.1297 35.3552C62.0786 35.0858 62.0276 34.8267 62.0276 34.5884V34.4537C62.0276 34.2464 62.0276 34.0288 62.0786 33.8215C62.0786 33.7386 62.1297 33.6661 62.1297 33.5832C62.1807 33.4277 62.2318 33.2619 62.2828 33.1065C62.3134 33.0236 62.3645 32.951 62.3849 32.8681L62.4545 32.8164Z" fill="black"/>
<path d="M156.891 200.189L138.986 210.718C130.696 215.599 121.264 217.827 111.729 217.195C95.7328 216.107 81.36 207.06 73.3372 192.977L62.9656 174.779C58.5251 166.976 60.3014 157.245 66.7528 151.535L76.134 167.981C77.1037 169.681 79.2678 170.261 80.9419 169.277C82.616 168.292 83.1877 166.095 82.2179 164.396L33.1666 78.4146C31.9416 76.2383 31.5945 73.7202 32.2274 71.3055C32.8501 68.8909 34.3711 66.8701 36.5148 65.6267C38.6278 64.3831 41.1902 64.0308 43.5176 64.6732C45.8655 65.3054 47.9071 66.9013 49.132 69.0463L86.8704 135.184C87.8401 136.883 90.0042 137.464 91.6783 136.479C92.8012 135.816 93.4341 134.624 93.4341 133.37C93.4341 132.759 93.281 132.147 92.9645 131.588L75.1208 100.281C73.8958 98.1354 73.5487 95.5862 74.1816 93.1715C74.8043 90.7569 76.3253 88.7361 78.4384 87.4927C80.5821 86.218 83.0626 85.8968 85.4208 86.5392C87.83 87.2025 89.841 88.7673 91.0661 90.9436L109.043 122.169C110.033 123.868 112.176 124.448 113.85 123.443C115.525 122.459 116.096 120.262 115.126 118.562L100.488 92.9035C99.263 90.7584 98.9159 88.2299 99.5692 85.8152C100.192 83.4006 101.713 81.3798 103.857 80.1363C105.97 78.8928 108.532 78.5404 110.859 79.1829C113.238 79.8151 115.229 81.3591 116.453 83.5353L131.092 109.194C132.062 110.894 134.226 111.474 135.9 110.49C137.023 109.826 137.656 108.635 137.656 107.381C137.656 106.769 137.503 106.158 137.186 105.598L126.764 87.3179C124.201 82.8307 125.692 77.0999 130.112 74.53C132.255 73.2864 134.736 72.9341 137.114 73.5766C139.493 74.2087 141.484 75.7735 142.729 77.9497L153.151 96.2299L174.445 133.557C187.716 156.821 179.876 186.719 156.939 200.222L156.891 200.189Z" fill="white"/>
<path d="M32.8271 59.1732C36.62 56.9641 41.1904 56.343 45.3799 57.4799L45.7715 57.5902C49.8065 58.785 53.3049 61.5771 55.4131 65.2865L68.3271 87.934C69.7656 85.0755 71.9656 82.7048 74.75 81.0609L74.752 81.0599C78.5954 78.8305 83.053 78.2087 87.3047 79.3666H87.3066C89.4191 79.955 91.3455 80.9317 93.0322 82.224C94.3694 78.6449 96.8587 75.644 100.159 73.7133L100.519 73.5082C104.25 71.4454 108.544 70.8973 112.683 72.0189C115.29 72.7235 117.641 74.0363 119.583 75.8441C120.96 72.703 123.269 69.9783 126.393 68.1283L126.395 68.1263C130.238 65.8968 134.696 65.275 138.948 66.433C143.197 67.59 146.783 70.3581 148.98 74.2396L180.709 129.816L181.073 130.454L181.047 130.443C195.824 157.132 186.73 191.166 160.531 206.555L142.626 217.083C134.165 222.07 124.638 224.652 114.927 224.652C113.695 224.652 112.454 224.6 111.225 224.517C92.7641 223.267 76.2543 212.845 66.9854 196.618H66.9844L56.6133 178.42C50.1878 167.184 53.0761 153.012 62.8066 145.157L26.8252 82.0629C24.6292 78.193 24.0175 73.6903 25.1572 69.3568C26.2966 65.0255 29.0006 61.4045 32.8262 59.1732H32.8271ZM80.6338 8.91541C81.9466 7.40711 84.2237 7.17447 85.8037 8.4447H85.8047C87.4211 9.75307 87.7047 12.1572 86.416 13.809L76.7998 26.1478C107.745 17.3525 133.629 29.9575 134.859 30.5609H134.86C136.742 31.4938 137.492 33.7677 136.566 35.6703C135.649 37.5779 133.406 38.3447 131.526 37.4349L131.517 37.4301C131.517 37.4301 131.509 37.4268 131.492 37.4183C131.476 37.4104 131.454 37.399 131.425 37.3851C131.367 37.3573 131.283 37.3174 131.176 37.2679C130.961 37.169 130.649 37.0294 130.246 36.8578C129.44 36.5143 128.269 36.0428 126.777 35.5131C123.794 34.4535 119.53 33.1611 114.34 32.1937C104.104 30.2858 90.2735 29.6455 75.5596 34.5326L90.4932 40.8246H90.4941C92.4294 41.6461 93.3213 43.8645 92.5371 45.8217L92.5361 45.8246C91.9254 47.2971 90.5269 48.175 89.0693 48.1752C88.5902 48.1752 88.0863 48.0871 87.6133 47.8861V47.8851L64.0947 37.9691L64.0732 37.9603L64.0537 37.9476L64.0518 37.9467C64.0504 37.9458 64.0485 37.9435 64.0459 37.9418C64.0405 37.9383 64.0322 37.9334 64.0225 37.9271C64.0025 37.9143 63.9751 37.8963 63.9443 37.8773C63.8791 37.8371 63.8114 37.7986 63.7705 37.7797L63.7617 37.7758V37.7748C63.7053 37.7461 63.6547 37.7173 63.6094 37.6918C63.5631 37.6657 63.5218 37.6425 63.4766 37.6195L63.4639 37.6136L63.4521 37.6058C63.2353 37.4627 63.0375 37.2953 62.8604 37.0951L62.7969 37.0385C62.7746 37.0184 62.7452 36.9871 62.7158 36.9467V36.9476C62.5045 36.7009 62.3367 36.4263 62.1885 36.1761C62.1783 36.1658 62.1655 36.1523 62.1553 36.142L62.1299 36.1156L62.1123 36.0834C62.0587 35.9814 62.0282 35.8797 62.0049 35.7933C61.9791 35.698 61.9663 35.6375 61.9434 35.5677L61.9307 35.5297V35.5258C61.9294 35.5235 61.9282 35.5206 61.9268 35.5179C61.9231 35.5112 61.9175 35.501 61.9121 35.4896C61.9068 35.4785 61.8998 35.4618 61.8936 35.4418C61.8903 35.4312 61.8894 35.417 61.8867 35.4008L61.8838 35.4017C61.8342 35.1401 61.7773 34.8551 61.7773 34.5883V34.4535C61.7773 34.3022 61.777 34.1248 61.8018 33.9437L61.8359 33.7621C61.8439 33.7004 61.858 33.6493 61.8662 33.6244C61.8811 33.5791 61.8799 33.5783 61.8799 33.5834V33.5433L61.8926 33.5052C61.9177 33.4289 61.9422 33.3494 61.9678 33.2689C61.9932 33.189 62.019 33.1076 62.0449 33.0287L62.0479 33.0199C62.0689 32.963 62.0981 32.9081 62.1133 32.8773C62.1317 32.8399 62.1394 32.8211 62.1426 32.808L62.1641 32.7211L62.2354 32.6674L62.2656 32.6439C62.3029 32.5779 62.3406 32.5156 62.375 32.4603C62.4207 32.3869 62.4603 32.3209 62.4951 32.2504L62.5049 32.2328C62.5214 32.2049 62.5352 32.1821 62.5479 32.1615C62.5605 32.1409 62.572 32.1216 62.5859 32.098L62.5947 32.0844L62.6045 32.0717L80.5098 9.0658L80.6338 8.91541Z" stroke="black" stroke-width="0.5"/>
</svg>
